<mxfile host="app.diagrams.net" modified="2021-05-04T03:19:19.816Z" agent="5.0 (Windows NT 10.0; Win64; x64) AppleWebKit/537.36 (KHTML, like Gecko) Chrome/90.0.4430.93 Safari/537.36" etag="i22cooLgjk5NGwuOs-Ep" version="14.6.9" type="github">
  <diagram id="R2lEEEUBdFMjLlhIrx00" name="Page-1">
    <mxGraphModel dx="1038" dy="621" grid="1" gridSize="10" guides="1" tooltips="1" connect="1" arrows="1" fold="1" page="1" pageScale="1" pageWidth="850" pageHeight="1100" math="0" shadow="0" extFonts="Permanent Marker^https://fonts.googleapis.com/css?family=Permanent+Marker">
      <root>
        <mxCell id="0" />
        <mxCell id="1" parent="0" />
        <mxCell id="rc5EeEYLeI_mQhgfrsBy-1" value="h" style="whiteSpace=wrap;html=1;aspect=fixed;labelPosition=center;verticalLabelPosition=top;align=center;verticalAlign=bottom;" vertex="1" parent="1">
          <mxGeometry x="20" y="80" width="200" height="200" as="geometry" />
        </mxCell>
        <mxCell id="rc5EeEYLeI_mQhgfrsBy-3" value="" style="whiteSpace=wrap;html=1;aspect=fixed;" vertex="1" parent="1">
          <mxGeometry x="600" y="80" width="200" height="200" as="geometry" />
        </mxCell>
        <mxCell id="rc5EeEYLeI_mQhgfrsBy-4" value="" style="whiteSpace=wrap;html=1;aspect=fixed;" vertex="1" parent="1">
          <mxGeometry x="80" y="345" width="295" height="295" as="geometry" />
        </mxCell>
        <mxCell id="rc5EeEYLeI_mQhgfrsBy-5" value="" style="whiteSpace=wrap;html=1;aspect=fixed;" vertex="1" parent="1">
          <mxGeometry x="480" y="360" width="290" height="290" as="geometry" />
        </mxCell>
        <mxCell id="rc5EeEYLeI_mQhgfrsBy-7" value="" style="endArrow=none;html=1;exitX=0;exitY=0.25;exitDx=0;exitDy=0;entryX=1;entryY=0.25;entryDx=0;entryDy=0;" edge="1" parent="1" source="rc5EeEYLeI_mQhgfrsBy-1" target="rc5EeEYLeI_mQhgfrsBy-1">
          <mxGeometry width="50" height="50" relative="1" as="geometry">
            <mxPoint x="400" y="350" as="sourcePoint" />
            <mxPoint x="450" y="300" as="targetPoint" />
            <Array as="points">
              <mxPoint x="120" y="130" />
            </Array>
          </mxGeometry>
        </mxCell>
        <mxCell id="rc5EeEYLeI_mQhgfrsBy-8" value="INSTRUCTOR" style="text;html=1;strokeColor=none;fillColor=none;align=center;verticalAlign=middle;whiteSpace=wrap;rounded=0;fontStyle=1" vertex="1" parent="1">
          <mxGeometry x="110" y="100" width="40" height="20" as="geometry" />
        </mxCell>
        <mxCell id="rc5EeEYLeI_mQhgfrsBy-10" value="h" style="whiteSpace=wrap;html=1;aspect=fixed;labelPosition=center;verticalLabelPosition=top;align=center;verticalAlign=bottom;" vertex="1" parent="1">
          <mxGeometry x="325" y="80" width="200" height="200" as="geometry" />
        </mxCell>
        <mxCell id="rc5EeEYLeI_mQhgfrsBy-11" value="" style="endArrow=none;html=1;" edge="1" parent="1" source="rc5EeEYLeI_mQhgfrsBy-10">
          <mxGeometry width="50" height="50" relative="1" as="geometry">
            <mxPoint x="400" y="330" as="sourcePoint" />
            <mxPoint x="450" y="280" as="targetPoint" />
          </mxGeometry>
        </mxCell>
        <mxCell id="rc5EeEYLeI_mQhgfrsBy-12" value="" style="endArrow=none;html=1;exitX=0;exitY=0.25;exitDx=0;exitDy=0;entryX=1;entryY=0.25;entryDx=0;entryDy=0;" edge="1" parent="1" source="rc5EeEYLeI_mQhgfrsBy-10" target="rc5EeEYLeI_mQhgfrsBy-10">
          <mxGeometry width="50" height="50" relative="1" as="geometry">
            <mxPoint x="400" y="330" as="sourcePoint" />
            <mxPoint x="450" y="280" as="targetPoint" />
          </mxGeometry>
        </mxCell>
        <mxCell id="rc5EeEYLeI_mQhgfrsBy-13" value="&lt;b&gt;STUDENT&lt;/b&gt;" style="text;html=1;strokeColor=none;fillColor=none;align=center;verticalAlign=middle;whiteSpace=wrap;rounded=0;" vertex="1" parent="1">
          <mxGeometry x="400" y="100" width="40" height="20" as="geometry" />
        </mxCell>
        <mxCell id="rc5EeEYLeI_mQhgfrsBy-14" value="" style="endArrow=none;html=1;entryX=1;entryY=0.25;entryDx=0;entryDy=0;exitX=0;exitY=0.25;exitDx=0;exitDy=0;" edge="1" parent="1" source="rc5EeEYLeI_mQhgfrsBy-3" target="rc5EeEYLeI_mQhgfrsBy-3">
          <mxGeometry width="50" height="50" relative="1" as="geometry">
            <mxPoint x="400" y="330" as="sourcePoint" />
            <mxPoint x="450" y="280" as="targetPoint" />
          </mxGeometry>
        </mxCell>
        <mxCell id="rc5EeEYLeI_mQhgfrsBy-15" value="&lt;b&gt;COURSE&lt;/b&gt;" style="text;html=1;strokeColor=none;fillColor=none;align=center;verticalAlign=middle;whiteSpace=wrap;rounded=0;" vertex="1" parent="1">
          <mxGeometry x="680" y="100" width="40" height="20" as="geometry" />
        </mxCell>
        <mxCell id="rc5EeEYLeI_mQhgfrsBy-16" value="" style="endArrow=none;html=1;exitX=0;exitY=0.25;exitDx=0;exitDy=0;entryX=1;entryY=0.25;entryDx=0;entryDy=0;" edge="1" parent="1" source="rc5EeEYLeI_mQhgfrsBy-4" target="rc5EeEYLeI_mQhgfrsBy-4">
          <mxGeometry width="50" height="50" relative="1" as="geometry">
            <mxPoint x="400" y="330" as="sourcePoint" />
            <mxPoint x="450" y="280" as="targetPoint" />
          </mxGeometry>
        </mxCell>
        <mxCell id="rc5EeEYLeI_mQhgfrsBy-17" value="" style="endArrow=none;html=1;entryX=1;entryY=0.176;entryDx=0;entryDy=0;entryPerimeter=0;" edge="1" parent="1" target="rc5EeEYLeI_mQhgfrsBy-5">
          <mxGeometry width="50" height="50" relative="1" as="geometry">
            <mxPoint x="477" y="410" as="sourcePoint" />
            <mxPoint x="450" y="280" as="targetPoint" />
          </mxGeometry>
        </mxCell>
        <mxCell id="rc5EeEYLeI_mQhgfrsBy-19" value="name" style="text;html=1;strokeColor=none;fillColor=none;align=center;verticalAlign=middle;whiteSpace=wrap;rounded=0;" vertex="1" parent="1">
          <mxGeometry x="60" y="180" width="40" height="20" as="geometry" />
        </mxCell>
        <mxCell id="rc5EeEYLeI_mQhgfrsBy-20" value="deptno" style="text;html=1;strokeColor=none;fillColor=none;align=center;verticalAlign=middle;whiteSpace=wrap;rounded=0;" vertex="1" parent="1">
          <mxGeometry x="50" y="210" width="40" height="20" as="geometry" />
        </mxCell>
        <mxCell id="rc5EeEYLeI_mQhgfrsBy-23" value="title" style="text;html=1;strokeColor=none;fillColor=none;align=center;verticalAlign=middle;whiteSpace=wrap;rounded=0;" vertex="1" parent="1">
          <mxGeometry x="50" y="240" width="40" height="20" as="geometry" />
        </mxCell>
        <mxCell id="rc5EeEYLeI_mQhgfrsBy-24" value="instructor_id (PK)" style="text;html=1;strokeColor=none;fillColor=none;align=center;verticalAlign=middle;whiteSpace=wrap;rounded=0;" vertex="1" parent="1">
          <mxGeometry x="51" y="150" width="109" height="20" as="geometry" />
        </mxCell>
        <mxCell id="rc5EeEYLeI_mQhgfrsBy-28" value="student_id (PK)" style="text;html=1;strokeColor=none;fillColor=none;align=center;verticalAlign=middle;whiteSpace=wrap;rounded=0;" vertex="1" parent="1">
          <mxGeometry x="350" y="150" width="90" height="20" as="geometry" />
        </mxCell>
        <mxCell id="rc5EeEYLeI_mQhgfrsBy-29" value="name" style="text;html=1;strokeColor=none;fillColor=none;align=center;verticalAlign=middle;whiteSpace=wrap;rounded=0;" vertex="1" parent="1">
          <mxGeometry x="350" y="180" width="40" height="20" as="geometry" />
        </mxCell>
        <mxCell id="rc5EeEYLeI_mQhgfrsBy-30" value="Program" style="text;html=1;strokeColor=none;fillColor=none;align=center;verticalAlign=middle;whiteSpace=wrap;rounded=0;" vertex="1" parent="1">
          <mxGeometry x="350" y="210" width="40" height="20" as="geometry" />
        </mxCell>
        <mxCell id="rc5EeEYLeI_mQhgfrsBy-31" value="dateofbirth" style="text;html=1;strokeColor=none;fillColor=none;align=center;verticalAlign=middle;whiteSpace=wrap;rounded=0;" vertex="1" parent="1">
          <mxGeometry x="350" y="240" width="40" height="20" as="geometry" />
        </mxCell>
        <mxCell id="rc5EeEYLeI_mQhgfrsBy-32" value="courseno (PK)" style="text;html=1;strokeColor=none;fillColor=none;align=center;verticalAlign=middle;whiteSpace=wrap;rounded=0;" vertex="1" parent="1">
          <mxGeometry x="630" y="150" width="80" height="10" as="geometry" />
        </mxCell>
        <mxCell id="rc5EeEYLeI_mQhgfrsBy-33" value="syllabus" style="text;html=1;strokeColor=none;fillColor=none;align=center;verticalAlign=middle;whiteSpace=wrap;rounded=0;" vertex="1" parent="1">
          <mxGeometry x="630" y="210" width="40" height="20" as="geometry" />
        </mxCell>
        <mxCell id="rc5EeEYLeI_mQhgfrsBy-34" value="title" style="text;html=1;strokeColor=none;fillColor=none;align=center;verticalAlign=middle;whiteSpace=wrap;rounded=0;" vertex="1" parent="1">
          <mxGeometry x="630" y="180" width="40" height="20" as="geometry" />
        </mxCell>
        <mxCell id="rc5EeEYLeI_mQhgfrsBy-35" value="credits" style="text;html=1;strokeColor=none;fillColor=none;align=center;verticalAlign=middle;whiteSpace=wrap;rounded=0;" vertex="1" parent="1">
          <mxGeometry x="630" y="240" width="40" height="20" as="geometry" />
        </mxCell>
        <mxCell id="rc5EeEYLeI_mQhgfrsBy-36" value="&lt;b&gt;ENROLLS&lt;/b&gt;" style="text;html=1;strokeColor=none;fillColor=none;align=center;verticalAlign=middle;whiteSpace=wrap;rounded=0;" vertex="1" parent="1">
          <mxGeometry x="180" y="380" width="40" height="20" as="geometry" />
        </mxCell>
        <mxCell id="rc5EeEYLeI_mQhgfrsBy-37" value="courseno (AK)(FK)" style="text;html=1;strokeColor=none;fillColor=none;align=center;verticalAlign=middle;whiteSpace=wrap;rounded=0;" vertex="1" parent="1">
          <mxGeometry x="160" y="440" width="112.5" height="10" as="geometry" />
        </mxCell>
        <mxCell id="rc5EeEYLeI_mQhgfrsBy-38" value="sectiono (AK)(FK)" style="text;html=1;strokeColor=none;fillColor=none;align=center;verticalAlign=middle;whiteSpace=wrap;rounded=0;" vertex="1" parent="1">
          <mxGeometry x="170" y="470" width="110" height="10" as="geometry" />
        </mxCell>
        <mxCell id="rc5EeEYLeI_mQhgfrsBy-39" value="year(AK)(FK)" style="text;html=1;strokeColor=none;fillColor=none;align=center;verticalAlign=middle;whiteSpace=wrap;rounded=0;" vertex="1" parent="1">
          <mxGeometry x="190" y="510" width="90" height="20" as="geometry" />
        </mxCell>
        <mxCell id="rc5EeEYLeI_mQhgfrsBy-40" value="semister(AK)(FK)" style="text;html=1;strokeColor=none;fillColor=none;align=center;verticalAlign=middle;whiteSpace=wrap;rounded=0;" vertex="1" parent="1">
          <mxGeometry x="190" y="550" width="130" height="20" as="geometry" />
        </mxCell>
        <mxCell id="rc5EeEYLeI_mQhgfrsBy-41" value="grade" style="text;html=1;strokeColor=none;fillColor=none;align=center;verticalAlign=middle;whiteSpace=wrap;rounded=0;" vertex="1" parent="1">
          <mxGeometry x="190" y="580" width="40" height="20" as="geometry" />
        </mxCell>
        <mxCell id="rc5EeEYLeI_mQhgfrsBy-44" value="&lt;b&gt;COURSE_OFFERING&lt;/b&gt;" style="text;html=1;strokeColor=none;fillColor=none;align=center;verticalAlign=middle;whiteSpace=wrap;rounded=0;" vertex="1" parent="1">
          <mxGeometry x="590" y="380" width="40" height="20" as="geometry" />
        </mxCell>
        <mxCell id="rc5EeEYLeI_mQhgfrsBy-46" value="student_id (FK)" style="text;html=1;strokeColor=none;fillColor=none;align=center;verticalAlign=middle;whiteSpace=wrap;rounded=0;" vertex="1" parent="1">
          <mxGeometry x="190" y="610" width="110" height="20" as="geometry" />
        </mxCell>
        <mxCell id="rc5EeEYLeI_mQhgfrsBy-47" value="sectionno(AK)" style="text;html=1;strokeColor=none;fillColor=none;align=center;verticalAlign=middle;whiteSpace=wrap;rounded=0;" vertex="1" parent="1">
          <mxGeometry x="581" y="480" width="109" height="22.5" as="geometry" />
        </mxCell>
        <mxCell id="rc5EeEYLeI_mQhgfrsBy-48" value="year(AK)" style="text;html=1;strokeColor=none;fillColor=none;align=center;verticalAlign=middle;whiteSpace=wrap;rounded=0;" vertex="1" parent="1">
          <mxGeometry x="585" y="520" width="125" height="20" as="geometry" />
        </mxCell>
        <mxCell id="rc5EeEYLeI_mQhgfrsBy-49" value="semister(AK)" style="text;html=1;strokeColor=none;fillColor=none;align=center;verticalAlign=middle;whiteSpace=wrap;rounded=0;" vertex="1" parent="1">
          <mxGeometry x="585" y="550" width="105" height="20" as="geometry" />
        </mxCell>
        <mxCell id="rc5EeEYLeI_mQhgfrsBy-50" value="time" style="text;html=1;strokeColor=none;fillColor=none;align=center;verticalAlign=middle;whiteSpace=wrap;rounded=0;" vertex="1" parent="1">
          <mxGeometry x="590" y="580" width="40" height="20" as="geometry" />
        </mxCell>
        <mxCell id="rc5EeEYLeI_mQhgfrsBy-51" value="room" style="text;html=1;strokeColor=none;fillColor=none;align=center;verticalAlign=middle;whiteSpace=wrap;rounded=0;" vertex="1" parent="1">
          <mxGeometry x="590" y="610" width="40" height="20" as="geometry" />
        </mxCell>
        <mxCell id="rc5EeEYLeI_mQhgfrsBy-56" value="courseno(AK)(FK)" style="text;html=1;strokeColor=none;fillColor=none;align=center;verticalAlign=middle;whiteSpace=wrap;rounded=0;" vertex="1" parent="1">
          <mxGeometry x="600" y="440" width="110" height="15" as="geometry" />
        </mxCell>
        <mxCell id="rc5EeEYLeI_mQhgfrsBy-60" value="" style="endArrow=classic;html=1;entryX=1;entryY=0.5;entryDx=0;entryDy=0;exitX=1;exitY=0.75;exitDx=0;exitDy=0;" edge="1" parent="1" source="rc5EeEYLeI_mQhgfrsBy-32" target="rc5EeEYLeI_mQhgfrsBy-56">
          <mxGeometry width="50" height="50" relative="1" as="geometry">
            <mxPoint x="710" y="345" as="sourcePoint" />
            <mxPoint x="760" y="295" as="targetPoint" />
          </mxGeometry>
        </mxCell>
        <mxCell id="rc5EeEYLeI_mQhgfrsBy-61" value="" style="endArrow=classic;html=1;exitX=0.5;exitY=1;exitDx=0;exitDy=0;" edge="1" parent="1" source="rc5EeEYLeI_mQhgfrsBy-28" target="rc5EeEYLeI_mQhgfrsBy-46">
          <mxGeometry width="50" height="50" relative="1" as="geometry">
            <mxPoint x="400" y="370" as="sourcePoint" />
            <mxPoint x="450" y="320" as="targetPoint" />
            <Array as="points">
              <mxPoint x="248" y="170" />
              <mxPoint x="245" y="240" />
            </Array>
          </mxGeometry>
        </mxCell>
        <mxCell id="rc5EeEYLeI_mQhgfrsBy-62" value="" style="endArrow=classic;html=1;" edge="1" parent="1">
          <mxGeometry width="50" height="50" relative="1" as="geometry">
            <mxPoint x="400" y="370" as="sourcePoint" />
            <mxPoint x="450" y="320" as="targetPoint" />
          </mxGeometry>
        </mxCell>
        <mxCell id="rc5EeEYLeI_mQhgfrsBy-63" value="" style="endArrow=classic;html=1;" edge="1" parent="1" source="rc5EeEYLeI_mQhgfrsBy-56">
          <mxGeometry width="50" height="50" relative="1" as="geometry">
            <mxPoint x="390" y="470" as="sourcePoint" />
            <mxPoint x="270" y="447" as="targetPoint" />
          </mxGeometry>
        </mxCell>
        <mxCell id="rc5EeEYLeI_mQhgfrsBy-64" value="" style="endArrow=classic;html=1;" edge="1" parent="1" source="rc5EeEYLeI_mQhgfrsBy-47">
          <mxGeometry width="50" height="50" relative="1" as="geometry">
            <mxPoint x="400" y="510" as="sourcePoint" />
            <mxPoint x="272" y="480" as="targetPoint" />
          </mxGeometry>
        </mxCell>
        <mxCell id="rc5EeEYLeI_mQhgfrsBy-65" value="" style="endArrow=classic;html=1;" edge="1" parent="1" source="rc5EeEYLeI_mQhgfrsBy-48" target="rc5EeEYLeI_mQhgfrsBy-39">
          <mxGeometry width="50" height="50" relative="1" as="geometry">
            <mxPoint x="390" y="560" as="sourcePoint" />
            <mxPoint x="440" y="510" as="targetPoint" />
            <Array as="points">
              <mxPoint x="460" y="520" />
            </Array>
          </mxGeometry>
        </mxCell>
        <mxCell id="rc5EeEYLeI_mQhgfrsBy-66" value="" style="endArrow=classic;html=1;" edge="1" parent="1" source="rc5EeEYLeI_mQhgfrsBy-49" target="rc5EeEYLeI_mQhgfrsBy-40">
          <mxGeometry width="50" height="50" relative="1" as="geometry">
            <mxPoint x="410" y="590" as="sourcePoint" />
            <mxPoint x="460" y="540" as="targetPoint" />
          </mxGeometry>
        </mxCell>
      </root>
    </mxGraphModel>
  </diagram>
</mxfile>
